# xmcd
#
# Track frame offsets: 
#        150
#        7423
#        25701
#        42123
#        72506
#        100857
#        121342
#        151083
#        166508
#        176189
#
# Disc length: 2846 seconds
#
# Revision: 0
# Processed by: cddbd v1.5.2PL0 Copyright (c) Steve Scherf et al.
# Submitted via: ExactAudioCopy v0.95b3
#
DISCID=770b1c0a
DTITLE=Anders Dahl, Christian Munthe - Several Kinds of Ground (Tyyfus
DTITLE=7, 2008)
DYEAR=2008
DGENRE=Improvised
TTITLE0=Ground 1
TTITLE1=Ground 2
TTITLE2=Ground 3
TTITLE3=Ground 4
TTITLE4=Ground 5
TTITLE5=Ground 6
TTITLE6=Ground 7
TTITLE7=Ground 8
TTITLE8=Ground 9
TTITLE9=Ground 10
EXTD=
EXTT0=
EXTT1=
EXTT2=
EXTT3=
EXTT4=
EXTT5=
EXTT6=
EXTT7=
EXTT8=
EXTT9=
PLAYORDER=
